<svg xmlns="http://www.w3.org/2000/svg" width="55" height="55" viewBox="0 0 55 55" fill="none">
  <g clip-path="url(#clip0_5_1155)">
    <path d="M23.6462 55C19.12 55 15.4377 51.3177 15.4377 46.7916V32.629C15.4377 31.6859 16.2023 30.9214 17.1453 30.9214C18.0884 30.9214 18.8529 31.6859 18.8529 32.629V46.7916C18.8529 49.4346 21.0032 51.5847 23.6461 51.5847C26.289 51.5847 28.4392 49.4345 28.4392 46.7916V43.3757C28.4392 38.3963 32.4902 34.3454 37.4697 34.3454H45.6798C46.6229 34.3454 47.3874 35.1099 47.3874 36.0529C47.3874 36.996 46.6229 37.7605 45.6798 37.7605H37.4697C34.3734 37.7605 31.8545 40.2794 31.8545 43.3757V46.7916C31.8546 51.3177 28.1724 55 23.6462 55Z" fill="#60B8FF"/>
    <path d="M45.7807 34.3504C45.8217 34.497 45.8453 34.651 45.8453 34.8106C45.8453 35.7537 45.0807 36.5182 44.1377 36.5182H35.9275C32.8313 36.5182 30.3124 39.0371 30.3124 42.1333V45.5492C30.3124 50.0755 26.6301 53.7577 22.104 53.7577C20.515 53.7577 19.0309 53.3024 17.7727 52.5176C19.2645 54.0475 21.3457 55 23.6462 55C28.1724 55 31.8546 51.3177 31.8546 46.7916V43.3757C31.8546 40.2794 34.3736 37.7605 37.4698 37.7605H45.6799C46.623 37.7605 47.3875 36.996 47.3875 36.0529C47.3875 35.1439 46.6766 34.4028 45.7807 34.3504Z" fill="#22A7FF"/>
    <path d="M47.4201 42.97C51.1773 42.97 54.223 39.9243 54.223 36.1671C54.223 32.41 51.1773 29.3642 47.4201 29.3642C43.663 29.3642 40.6172 32.41 40.6172 36.1671C40.6172 39.9243 43.663 42.97 47.4201 42.97Z" fill="#AB9FAA"/>
    <path d="M51.0424 30.4096C51.3134 31.1437 51.4618 31.9373 51.4618 32.7656C51.4618 36.5228 48.4161 39.5685 44.6589 39.5685C43.3272 39.5685 42.0858 39.1844 41.0369 38.5231C41.9953 41.1189 44.4914 42.97 47.4203 42.97C51.1775 42.97 54.2232 39.9243 54.2232 36.1671C54.2232 33.7416 52.953 31.6141 51.0424 30.4096Z" fill="#928392"/>
    <path d="M47.4203 39.5687C49.2989 39.5687 50.8218 38.0457 50.8218 36.1671C50.8218 34.2885 49.2989 32.7656 47.4203 32.7656C45.5417 32.7656 44.0188 34.2885 44.0188 36.1671C44.0188 38.0457 45.5417 39.5687 47.4203 39.5687Z" fill="#D8D1D7"/>
    <path d="M48.7642 33.042C48.9672 33.4779 49.0813 33.9636 49.0813 34.4762C49.0813 36.3548 47.5583 37.8777 45.6798 37.8777C45.2024 37.8777 44.7481 37.779 44.3357 37.6013C44.8768 38.763 46.054 39.5686 47.4201 39.5686C49.2987 39.5686 50.8215 38.0457 50.8215 36.1671C50.8216 34.766 49.9742 33.5631 48.7642 33.042Z" fill="#CAC0C9"/>
    <path d="M17.1453 33.2688C11.6402 33.2688 6.79293 29.557 5.35777 24.2421L0.952507 7.92889C0.543767 6.41521 0.856042 4.8332 1.8093 3.58851C2.76257 2.34381 4.20836 1.62988 5.77629 1.62988H9.78914C10.2456 1.62988 10.6154 1.99984 10.6154 2.45617C10.6154 2.9125 10.2456 3.28246 9.78914 3.28246H5.77618C4.72688 3.28246 3.75912 3.76027 3.12125 4.59333C2.48327 5.42639 2.27423 6.48524 2.54772 7.49823L6.95309 23.8114C8.19414 28.4068 12.3852 31.6164 17.1453 31.6164C21.9054 31.6164 26.0966 28.4068 27.3376 23.8114L31.7428 7.49823C32.0163 6.48524 31.8074 5.42639 31.1694 4.59333C30.5314 3.76027 29.5638 3.28246 28.5145 3.28246H24.5016C24.0452 3.28246 23.6753 2.9125 23.6753 2.45617C23.6753 1.99984 24.0452 1.62988 24.5016 1.62988H28.5145C30.0823 1.62988 31.5282 2.34381 32.4815 3.58861C33.4347 4.83342 33.747 6.41542 33.3382 7.92899L28.9329 24.2422C27.4977 29.5569 22.6505 33.2688 17.1453 33.2688Z" fill="#928392"/>
    <path d="M17.1453 34.1502C11.2428 34.1502 6.04574 30.1703 4.50692 24.4719L3.95134 22.4144C3.70545 21.5039 4.24417 20.5666 5.15468 20.3207C6.0654 20.075 7.00255 20.6136 7.24843 21.524L7.80402 23.5815C8.9414 27.7934 12.7827 30.7349 17.1453 30.7349C21.508 30.7349 25.3493 27.7934 26.4867 23.5815L27.0423 21.524C27.2881 20.6136 28.2255 20.0746 29.1361 20.3207C30.0465 20.5664 30.5853 21.5039 30.3394 22.4144L29.7838 24.4719C28.2451 30.1704 23.0479 34.1502 17.1453 34.1502Z" fill="#60B8FF"/>
    <path d="M29.3972 20.4166C29.417 20.6171 29.4035 20.824 29.348 21.03L28.7924 23.0875C27.2536 28.7859 22.0564 32.7657 16.1539 32.7657C12.1366 32.7657 8.44743 30.921 6.01465 27.9468C8.35752 31.7235 12.5363 34.1503 17.1454 34.1503C23.0479 34.1503 28.2451 30.1704 29.7839 24.472L30.3395 22.4146C30.5607 21.5953 30.1455 20.7561 29.3972 20.4166Z" fill="#22A7FF"/>
    <path d="M9.85484 4.92014C11.2135 4.92014 12.3149 3.81873 12.3149 2.46007C12.3149 1.10141 11.2135 0 9.85484 0C8.49619 0 7.39478 1.10141 7.39478 2.46007C7.39478 3.81873 8.49619 4.92014 9.85484 4.92014Z" fill="#BBB0BA"/>
    <path d="M10.5834 0.109802C10.842 0.499207 10.9929 0.966169 10.9929 1.46858C10.9929 2.82725 9.89151 3.92865 8.53284 3.92865C8.27922 3.92865 8.03451 3.89019 7.8042 3.81886C8.24484 4.48252 8.99852 4.92015 9.85477 4.92015C11.2134 4.92015 12.3148 3.81876 12.3148 2.46009C12.3148 1.35514 11.5863 0.420359 10.5834 0.109802Z" fill="#AB9FAA"/>
    <path d="M24.1769 4.92014C25.5355 4.92014 26.6369 3.81873 26.6369 2.46007C26.6369 1.10141 25.5355 0 24.1769 0C22.8182 0 21.7168 1.10141 21.7168 2.46007C21.7168 3.81873 22.8182 4.92014 24.1769 4.92014Z" fill="#BBB0BA"/>
    <path d="M24.9054 0.109802C25.164 0.499207 25.3149 0.966169 25.3149 1.46858C25.3149 2.82725 24.2135 3.92865 22.8549 3.92865C22.6012 3.92865 22.3565 3.89019 22.1262 3.81886C22.5669 4.48252 23.3205 4.92015 24.1768 4.92015C25.5355 4.92015 26.6369 3.81876 26.6369 2.46009C26.637 1.35514 25.9084 0.420359 24.9054 0.109802Z" fill="#AB9FAA"/>
  </g>
  <defs>
    <clipPath id="clip0_5_1155">
      <rect width="55" height="55" fill="white"/>
    </clipPath>
  </defs>
</svg>